<svg width="666" height="140" viewBox="0 0 666 140" fill="none" xmlns="http://www.w3.org/2000/svg">
<path d="M23.3415 0C29.7994 0 35.2863 2.29411 39.7991 6.88293C44.3895 11.394 46.6844 16.8779 46.6844 23.3333V34.6041C46.6844 36.0042 48.4644 36.6 49.3059 35.4814L68.977 9.3339C72.7896 4.20058 77.886 1.2059 84.2662 0.350342C90.6461 -0.582783 96.443 0.856002 101.656 4.66695C106.791 8.55572 109.786 13.689 110.642 20.0663C111.576 26.4441 110.098 32.2008 106.207 37.3342L85.9256 64.4017C85.1492 65.4378 85.1487 66.8625 85.9241 67.8994L111.926 102.667C115.816 107.801 117.295 113.556 116.362 119.934C115.506 126.311 112.509 131.444 107.374 135.333C102.161 139.144 96.3645 140.583 89.9845 139.65C83.6045 138.794 78.5078 135.801 74.6953 130.668L49.3045 97.0376C48.4618 95.9214 46.6844 96.5174 46.6844 97.9163V116.667C46.6844 123.122 44.3896 128.645 39.7991 133.234C35.2862 137.745 29.7995 140 23.3415 140C16.8838 140 11.3591 137.745 6.76862 133.234C2.25588 128.645 0 123.122 0 116.667V23.3333C2.28183e-05 16.8779 2.25589 11.394 6.76862 6.88293C11.3591 2.29421 16.8838 0.000173581 23.3415 0Z" fill="#81B300"/>
<path fill-rule="evenodd" clip-rule="evenodd" d="M281.105 1.16638C294.021 1.16639 305.031 5.71707 314.134 14.8169C323.238 23.9168 327.79 34.9221 327.79 47.833C327.79 60.7441 323.238 71.7506 314.134 80.8506C313.805 81.1797 313.476 81.5007 313.147 81.8134C312.027 82.8763 311.823 84.6149 312.748 85.8508L325.339 102.667C329.229 107.801 330.707 113.556 329.774 119.934C328.918 126.311 325.923 131.444 320.788 135.333C315.575 139.144 309.778 140.583 303.398 139.65C297.018 138.794 291.921 135.8 288.109 130.668L272.155 102.859C271.412 101.565 269.434 102.092 269.434 103.586V116.667C269.434 123.122 267.139 128.645 262.549 133.234C258.036 137.745 252.55 140 246.092 140C239.635 140 234.11 137.745 229.52 133.234C225.007 128.645 222.75 123.122 222.75 116.667V24.4997C222.75 18.0443 225.007 12.5604 229.52 8.04932C234.11 3.46076 239.635 1.16639 246.092 1.16638H281.105ZM274.707 37.9167C269.475 37.9167 265.234 42.1606 265.234 47.3958C265.234 52.631 269.475 56.875 274.707 56.875C279.938 56.875 284.179 52.631 284.179 47.3958C284.179 42.1606 279.938 37.9167 274.707 37.9167Z" fill="#81B300"/>
<path d="M440.916 0C447.374 0.000175085 452.859 2.2946 457.371 6.88293C461.962 11.394 464.258 16.8778 464.258 23.3333V116.667C464.258 123.122 461.962 128.645 457.371 133.234C452.859 137.744 447.374 140 440.916 140C434.459 140 428.973 137.706 424.46 133.117L385.112 88.3061C384.225 87.296 382.561 87.9241 382.561 89.2688V116.667C382.561 123.122 380.265 128.645 375.674 133.234C371.161 137.745 365.676 140 359.218 140C352.76 140 347.235 137.745 342.645 133.234C338.132 128.645 335.876 123.122 335.876 116.667V23.3333C335.876 16.8778 338.132 11.394 342.645 6.88293C347.235 2.2942 352.76 6.03928e-05 359.218 0C365.676 0 371.2 2.25533 375.791 6.76615L415.02 51.5672C415.907 52.5795 417.574 51.9519 417.574 50.6059V23.3333C417.574 16.8778 419.831 11.394 424.344 6.88293C428.934 2.29446 434.459 0 440.916 0Z" fill="#81B300"/>
<path d="M192.49 1.16638C198.948 1.16657 204.434 3.46063 208.946 8.04932C213.537 12.5604 215.831 18.0443 215.831 24.4997C215.831 30.9552 213.537 36.4781 208.946 41.0669C204.434 45.5778 198.948 47.8329 192.49 47.833H172.062C170.452 47.8331 169.147 49.1391 169.147 50.7497C169.147 52.3605 170.452 53.6663 172.062 53.6664H186.654C191.166 53.6664 194.824 55.2612 197.625 58.4501C200.426 61.6389 201.826 65.4891 201.826 70C201.826 74.5109 200.426 78.3611 197.625 81.5499C194.824 84.7388 191.166 86.3336 186.654 86.3336H172.062C170.452 86.3336 169.147 87.6395 169.147 89.2503C169.147 90.861 170.452 92.1669 172.062 92.167H192.49C198.948 92.1671 204.434 94.4612 208.946 99.0499C213.537 103.561 215.831 109.045 215.831 115.5C215.831 121.956 213.537 127.479 208.946 132.067C204.434 136.578 198.948 138.833 192.49 138.834H145.804C139.346 138.833 133.822 136.578 129.231 132.067C124.719 127.479 122.463 121.956 122.463 115.5V24.4997C122.463 18.0443 124.719 12.5604 129.231 8.04932C133.822 3.46065 139.347 1.16652 145.804 1.16638H192.49Z" fill="#81B300"/>
<path d="M542.37 1.16638C548.828 1.16638 554.314 3.4607 558.826 8.04932C563.417 12.5604 565.712 18.0443 565.712 24.4997C565.712 30.9553 563.417 36.478 558.826 41.0669C554.314 45.5779 548.828 47.833 542.37 47.833H521.943C520.334 47.833 519.029 49.139 519.029 50.7497C519.029 52.3605 520.334 53.6664 521.943 53.6664H536.535C541.048 53.6665 544.704 55.2615 547.505 58.4501C550.306 61.639 551.708 65.489 551.708 70C551.708 74.511 550.306 78.361 547.505 81.5499C544.704 84.7385 541.048 86.3335 536.535 86.3336H521.942C520.333 86.334 519.029 87.6397 519.029 89.2503C519.029 90.8608 520.333 92.1666 521.942 92.167H542.37C548.828 92.167 554.314 94.4611 558.826 99.0499C563.417 103.561 565.712 109.045 565.712 115.5C565.712 121.956 563.417 127.479 558.826 132.067C554.314 136.578 548.828 138.834 542.37 138.834H495.686C489.228 138.834 483.704 136.578 479.113 132.067C474.6 127.479 472.343 121.956 472.343 115.5V24.4997C472.343 18.0443 474.6 12.5604 479.113 8.04932C483.704 3.46072 489.228 1.16641 495.686 1.16638H542.37Z" fill="#81B300"/>
<path d="M595.973 0C602.43 0 607.916 2.29442 612.429 6.88293C617.02 11.394 619.316 16.8778 619.316 23.3333V89.2503C619.316 90.861 620.621 92.1669 622.23 92.167H642.659C649.116 92.1671 654.602 94.4612 659.115 99.0499C663.705 103.561 666 109.045 666 115.5C666 121.956 663.705 127.479 659.115 132.067C654.602 136.578 649.116 138.833 642.659 138.834H595.973C589.515 138.833 583.992 136.578 579.401 132.067C574.889 127.479 572.631 121.956 572.631 115.5V23.3333C572.631 16.8778 574.888 11.394 579.401 6.88293C583.992 2.29463 589.515 0.000162919 595.973 0Z" fill="#81B300"/>
<path d="M647.897 0C657.895 0 666 8.10152 666 18.0953C666 28.0892 657.895 36.1906 647.897 36.1906C637.9 36.1904 629.796 28.0891 629.796 18.0953C629.796 8.10164 637.9 0.000192213 647.897 0Z" fill="#81B300"/>
</svg>
